<svg xmlns="http://www.w3.org/2000/svg" xmlns:xlink="http://www.w3.org/1999/xlink" width="500" zoomAndPan="magnify" viewBox="0 0 375 374.999991" height="500" preserveAspectRatio="xMidYMid meet" version="1.0"><defs><clipPath id="26e6245388"><path d="M 28.429688 7.671875 L 346.402344 7.671875 L 346.402344 375 L 28.429688 375 Z M 28.429688 7.671875 " clip-rule="nonzero"/></clipPath></defs><g clip-path="url(#26e6245388)"><path fill="#ffffff" d="M 136.5625 113.765625 C 139.347656 112.339844 142.140625 110.914062 144.929688 109.488281 C 147.425781 108.214844 148.152344 104.699219 146.792969 102.375 C 145.308594 99.835938 142.191406 99.226562 139.683594 100.507812 C 136.898438 101.933594 134.105469 103.355469 131.316406 104.78125 C 128.820312 106.058594 128.09375 109.574219 129.453125 111.898438 C 130.9375 114.4375 134.054688 115.042969 136.5625 113.765625 Z M 207.378906 138.386719 C 205.222656 140.671875 203.082031 142.957031 200.941406 145.242188 C 199.089844 147.230469 198.828125 150.65625 200.941406 152.605469 C 202.96875 154.464844 206.300781 154.722656 208.296875 152.605469 C 210.4375 150.308594 212.578125 148.035156 214.71875 145.738281 C 216.574219 143.75 216.832031 140.320312 214.71875 138.386719 C 212.695312 136.53125 209.363281 136.265625 207.378906 138.386719 Z M 249.457031 192.953125 C 247.65625 190.394531 245.839844 187.824219 244.035156 185.277344 C 242.464844 183.058594 239.429688 181.796875 236.925781 183.410156 C 234.734375 184.824219 233.386719 188.148438 235.058594 190.523438 C 236.875 193.082031 238.679688 195.640625 240.480469 198.199219 C 242.050781 200.417969 245.085938 201.679688 247.589844 200.070312 C 249.78125 198.652344 251.132812 195.328125 249.457031 192.953125 Z M 218.15625 305.488281 C 221.285156 305.460938 224.421875 305.4375 227.550781 305.410156 C 230.351562 305.382812 232.738281 303.035156 232.738281 300.203125 C 232.738281 297.410156 230.363281 294.984375 227.550781 295.007812 C 224.421875 295.035156 221.285156 295.0625 218.15625 295.101562 C 215.34375 295.125 212.957031 297.464844 212.957031 300.292969 C 212.957031 303.097656 215.34375 305.515625 218.15625 305.488281 Z M 241.390625 240.976562 L 241.777344 231.585938 C 241.894531 228.78125 239.316406 226.390625 236.589844 226.390625 C 233.671875 226.390625 231.503906 228.769531 231.386719 231.585938 L 231 240.976562 C 230.882812 243.792969 233.464844 246.183594 236.1875 246.183594 C 239.105469 246.183594 241.261719 243.804688 241.390625 240.976562 Z M 142.609375 197.109375 C 140.960938 194.433594 139.308594 191.769531 137.65625 189.109375 C 136.222656 186.796875 132.949219 185.695312 130.546875 187.253906 C 128.238281 188.734375 127.152344 191.886719 128.683594 194.367188 C 130.335938 197.03125 131.988281 199.691406 133.636719 202.355469 C 135.066406 204.667969 138.34375 205.769531 140.746094 204.226562 C 143.058594 202.71875 144.144531 199.574219 142.609375 197.109375 Z M 97.617188 262.089844 C 100.199219 260.324219 102.785156 258.558594 105.375 256.792969 C 107.613281 255.257812 108.828125 252.144531 107.234375 249.675781 C 105.800781 247.441406 102.527344 246.167969 100.128906 247.804688 C 97.539062 249.570312 94.957031 251.335938 92.371094 253.105469 C 90.132812 254.636719 88.910156 257.753906 90.507812 260.21875 C 91.945312 262.453125 95.214844 263.726562 97.617188 262.089844 Z M 107.597656 183.953125 C 108.726562 184.890625 109.425781 186.199219 109.570312 187.65625 C 109.714844 189.121094 109.28125 190.539062 108.351562 191.679688 C 107.425781 192.808594 106.113281 193.511719 104.65625 193.65625 C 103.199219 193.796875 101.777344 193.355469 100.640625 192.433594 C 99.511719 191.5 98.8125 190.1875 98.667969 188.734375 C 98.523438 187.265625 98.957031 185.851562 99.886719 184.707031 C 100.8125 183.578125 102.128906 182.875 103.585938 182.734375 C 103.765625 182.71875 103.949219 182.707031 104.125 182.707031 C 105.394531 182.707031 106.609375 183.136719 107.597656 183.953125 Z M 105.667969 203.992188 C 109.882812 203.574219 113.683594 201.550781 116.371094 198.265625 C 119.058594 194.992188 120.3125 190.863281 119.902344 186.640625 C 119.484375 182.421875 117.460938 178.617188 114.183594 175.929688 C 110.914062 173.242188 106.792969 171.980469 102.570312 172.394531 C 98.355469 172.8125 94.554688 174.835938 91.871094 178.125 C 89.179688 181.394531 87.925781 185.523438 88.339844 189.746094 C 88.753906 193.964844 90.785156 197.769531 94.058594 200.457031 C 96.921875 202.808594 100.433594 204.070312 104.089844 204.070312 C 104.613281 204.070312 105.140625 204.042969 105.667969 203.992188 Z M 335.933594 210.808594 C 334.664062 173.707031 319.746094 140.007812 296.070312 114.597656 L 291.464844 119.210938 C 293.398438 122.363281 294.785156 126.089844 295.980469 130.359375 C 296.578125 132.488281 297.148438 134.738281 297.691406 136.914062 C 299.882812 145.59375 302.375 155.449219 307.175781 159.125 C 312.882812 163.488281 326.242188 173.722656 324.011719 196.148438 C 323.363281 202.628906 322.273438 207.160156 321.289062 210.808594 Z M 296.058594 317.410156 C 319.746094 292.007812 334.664062 258.3125 335.933594 221.199219 L 319.238281 221.199219 C 319.289062 222.742188 319.601562 224.417969 320.226562 226.535156 C 320.742188 228.300781 321.351562 230.027344 321.988281 231.847656 C 325.632812 242.273438 329.773438 254.101562 315.996094 269.6875 C 311.921875 274.285156 308.5625 277.542969 305.863281 280.167969 C 299.367188 286.464844 297.40625 288.359375 296.601562 297.722656 C 296.019531 304.578125 294.773438 309.890625 292.632812 313.980469 Z M 192.617188 364.679688 C 229.679688 363.40625 263.34375 348.472656 288.730469 324.757812 L 285.589844 321.628906 C 282.554688 323.488281 278.816406 324.667969 274.226562 325.355469 C 272.980469 325.539062 271.710938 325.707031 270.4375 325.890625 C 260.476562 327.277344 250.164062 328.707031 246.570312 335.292969 C 240.886719 345.730469 228.851562 354.808594 216.667969 354.808594 C 214.632812 354.808594 212.582031 354.5625 210.558594 354.015625 C 207.160156 353.09375 203.773438 351.820312 200.507812 350.589844 C 197.78125 349.574219 195.097656 348.5625 192.617188 347.835938 Z M 86.128906 324.757812 C 111.507812 348.472656 145.171875 363.40625 182.242188 364.679688 L 182.242188 347.785156 C 182.175781 347.824219 182.097656 347.847656 182.046875 347.886719 C 171.980469 354.78125 150.273438 357.070312 137.789062 345.109375 L 136.777344 344.148438 C 127.21875 334.964844 118.1875 326.316406 107.226562 326.316406 C 100.730469 326.316406 94.902344 324.109375 90.195312 320.683594 Z M 38.910156 221.199219 C 40.1875 258.3125 55.105469 292.007812 78.789062 317.410156 L 82.949219 313.242188 C 80.308594 309.410156 78.648438 305.113281 78.253906 300.917969 C 77.046875 288.308594 73.203125 278.398438 67.957031 274.4375 C 66.777344 273.542969 65.519531 272.671875 64.300781 271.828125 C 57.054688 266.816406 48.035156 260.570312 50.429688 244.78125 C 50.964844 241.234375 51.640625 237.898438 52.292969 234.691406 C 53.246094 230 54.128906 225.625 54.453125 221.199219 Z M 78.730469 114.546875 C 54.128906 140.917969 40.136719 174.746094 38.90625 210.808594 L 53.976562 210.808594 C 53.636719 208.914062 53.140625 206.976562 52.453125 204.964844 C 47.242188 189.757812 44.535156 176.980469 60.632812 162.527344 C 73.242188 151.214844 75.445312 147.152344 76.949219 138.101562 C 78.402344 129.386719 80.449219 123.210938 83.28125 119.097656 Z M 147.507812 183.394531 L 90.839844 126.664062 C 89.652344 129.046875 88.3125 133.0625 87.1875 139.816406 C 85.164062 151.945312 81.3125 157.917969 67.5625 170.265625 C 57.078125 179.667969 57.042969 186.34375 62.265625 201.589844 C 63.359375 204.796875 64.058594 207.859375 64.476562 210.808594 L 174.898438 210.808594 Z M 192.617188 95.417969 L 192.617188 203.472656 L 276.46875 119.523438 C 274.121094 118.558594 271.125 117.929688 267.195312 117.597656 C 252.316406 116.355469 243.378906 108.015625 236.191406 101.308594 C 234.558594 99.789062 233.015625 98.347656 231.484375 97.054688 C 223.101562 89.996094 216.550781 84.464844 202.152344 91.855469 C 198.960938 93.488281 195.769531 94.679688 192.617188 95.417969 Z M 288.730469 107.25 C 263.34375 83.542969 229.679688 68.601562 192.617188 67.324219 L 192.617188 84.636719 C 194.175781 84.121094 195.769531 83.453125 197.417969 82.613281 C 217.953125 72.074219 229.589844 81.878906 238.085938 89.039062 C 239.902344 90.566406 241.613281 92.164062 243.273438 93.710938 C 249.902344 99.898438 256.765625 106.300781 268.050781 107.246094 C 275.070312 107.828125 280.246094 109.375 284.175781 111.804688 Z M 192.617188 337.140625 C 196.523438 338.011719 200.441406 339.476562 204.152344 340.878906 C 207.199219 342.023438 210.339844 343.203125 213.257812 343.984375 C 222 346.347656 232.832031 338.828125 237.464844 330.324219 C 243.558594 319.140625 257.089844 317.257812 269.011719 315.609375 C 270.257812 315.441406 271.488281 315.257812 272.707031 315.089844 C 274.679688 314.792969 276.390625 314.453125 277.882812 313.910156 L 192.621094 228.550781 L 192.621094 281.535156 C 193.113281 281.859375 193.59375 282.210938 194.058594 282.585938 C 200.816406 288.144531 201.789062 298.167969 196.25 304.933594 C 195.1875 306.222656 193.957031 307.285156 192.621094 308.15625 Z M 97.648438 313.21875 C 100.347656 314.871094 103.558594 315.933594 107.226562 315.933594 C 122.351562 315.933594 133.332031 326.453125 143.953125 336.648438 L 144.960938 337.609375 C 153.121094 345.425781 169.269531 344.0625 176.183594 339.320312 C 178.117188 338.011719 180.140625 337.191406 182.242188 336.75 L 182.242188 310.609375 C 179.285156 310.285156 176.390625 309.144531 173.925781 307.117188 C 167.167969 301.558594 166.195312 291.546875 171.746094 284.78125 C 174.394531 281.5625 178.101562 279.546875 182.242188 279.09375 L 182.242188 228.550781 Z M 188.234375 298.339844 C 190.140625 296 189.804688 292.535156 187.46875 290.613281 C 186.484375 289.808594 185.265625 289.367188 184.003906 289.367188 C 183.824219 289.367188 183.640625 289.378906 183.460938 289.402344 C 182.007812 289.535156 180.699219 290.234375 179.765625 291.378906 C 177.84375 293.714844 178.179688 297.167969 180.515625 299.089844 C 182.851562 301.011719 186.316406 300.675781 188.234375 298.339844 Z M 90.492188 305.703125 L 174.898438 221.203125 L 64.84375 221.203125 C 64.515625 226.617188 63.488281 231.734375 62.464844 236.757812 C 61.835938 239.851562 61.1875 243.042969 60.691406 246.34375 C 59.269531 255.71875 63.386719 258.574219 70.207031 263.289062 C 71.515625 264.199219 72.855469 265.132812 74.210938 266.148438 C 84.667969 274.054688 87.703125 290.714844 88.578125 299.9375 C 88.753906 301.726562 89.417969 303.726562 90.492188 305.703125 Z M 308.875 221.203125 L 199.949219 221.203125 L 284.71875 306.066406 C 285.433594 303.714844 285.941406 300.714844 286.277344 296.84375 C 287.40625 283.597656 291.632812 279.507812 298.640625 272.703125 C 301.222656 270.210938 304.425781 267.09375 308.226562 262.808594 C 317.96875 251.785156 315.554688 244.863281 312.195312 235.277344 C 311.546875 233.421875 310.871094 231.5 310.273438 229.5 C 309.328125 226.304688 308.925781 223.617188 308.875 221.203125 Z M 283.824219 126.851562 L 199.949219 210.8125 L 310.523438 210.8125 C 310.585938 210.554688 310.664062 210.308594 310.730469 210.046875 C 311.792969 206.253906 313 201.957031 313.675781 195.113281 C 315.21875 179.75 307.875 172.738281 300.871094 167.375 C 293.191406 161.507812 290.363281 150.300781 287.640625 139.46875 C 287.09375 137.3125 286.550781 135.183594 285.992188 133.167969 C 285.316406 130.746094 284.644531 128.652344 283.824219 126.851562 Z M 346.414062 216.007812 C 346.414062 303.78125 275.09375 375.175781 187.429688 375.175781 C 99.757812 375.175781 28.433594 303.78125 28.433594 216.007812 C 28.433594 173.503906 44.972656 133.527344 75 103.46875 L 78.667969 99.796875 L 182.242188 203.476562 L 182.242188 56.851562 L 187.429688 56.847656 C 275.09375 56.847656 346.414062 128.253906 346.414062 216.003906 Z M 273.8125 246.953125 C 275.25 247.277344 276.457031 248.136719 277.234375 249.367188 C 278.015625 250.617188 278.273438 252.082031 277.949219 253.511719 C 277.625 254.941406 276.753906 256.160156 275.523438 256.941406 C 274.289062 257.71875 272.8125 257.976562 271.386719 257.652344 C 269.972656 257.328125 268.75 256.460938 267.972656 255.226562 C 267.183594 253.980469 266.9375 252.511719 267.261719 251.082031 C 267.585938 249.65625 268.441406 248.433594 269.6875 247.65625 C 270.566406 247.109375 271.566406 246.8125 272.589844 246.8125 C 273.007812 246.8125 273.410156 246.863281 273.8125 246.953125 Z M 281.050781 265.730469 C 284.640625 263.472656 287.132812 259.953125 288.066406 255.824219 C 289 251.679688 288.273438 247.421875 286.019531 243.835938 C 283.761719 240.253906 280.246094 237.757812 276.121094 236.824219 C 271.980469 235.875 267.738281 236.617188 264.148438 238.875 C 260.566406 241.121094 258.074219 244.640625 257.140625 248.785156 C 256.207031 252.925781 256.933594 257.171875 259.191406 260.757812 C 261.449219 264.339844 264.964844 266.835938 269.089844 267.78125 C 270.269531 268.042969 271.449219 268.183594 272.628906 268.183594 C 275.589844 268.183594 278.492188 267.339844 281.050781 265.730469 Z M 269.894531 172.167969 C 271.320312 172.492188 272.539062 173.363281 273.316406 174.597656 C 274.097656 175.84375 274.34375 177.296875 274.019531 178.738281 C 273.355469 181.6875 270.414062 183.542969 267.46875 182.867188 C 266.039062 182.542969 264.820312 181.6875 264.042969 180.441406 C 263.265625 179.207031 263.019531 177.738281 263.34375 176.308594 C 263.667969 174.882812 264.523438 173.660156 265.753906 172.882812 C 266.648438 172.324219 267.648438 172.039062 268.675781 172.039062 C 269.074219 172.039062 269.492188 172.078125 269.894531 172.167969 Z M 284.136719 181.039062 C 285.082031 176.894531 284.355469 172.648438 282.101562 169.0625 C 279.84375 165.480469 276.328125 162.972656 272.1875 162.039062 C 263.667969 160.105469 255.15625 165.46875 253.222656 174.011719 C 252.277344 178.140625 253.003906 182.386719 255.261719 185.972656 C 257.53125 189.570312 261.046875 192.0625 265.171875 192.996094 C 266.351562 193.269531 267.519531 193.398438 268.6875 193.398438 C 275.925781 193.398438 282.476562 188.386719 284.136719 181.039062 Z M 232.804688 114.964844 C 232.804688 117.988281 230.355469 120.449219 227.332031 120.449219 C 224.308594 120.449219 221.859375 117.988281 221.859375 114.964844 C 221.859375 111.941406 224.308594 109.484375 227.332031 109.484375 C 230.355469 109.484375 232.804688 111.941406 232.804688 114.964844 Z M 243.183594 114.964844 C 243.183594 106.214844 236.074219 99.09375 227.332031 99.09375 C 218.589844 99.09375 211.480469 106.214844 211.480469 114.964844 C 211.480469 123.714844 218.589844 130.839844 227.332031 130.839844 C 236.074219 130.839844 243.183594 123.714844 243.183594 114.964844 Z M 145.902344 72.722656 C 145.902344 75.746094 143.441406 78.203125 140.421875 78.203125 C 137.402344 78.203125 134.9375 75.746094 134.9375 72.722656 C 134.9375 69.699219 137.402344 67.238281 140.421875 67.238281 C 143.441406 67.238281 145.902344 69.699219 145.902344 72.722656 Z M 156.277344 72.722656 C 156.277344 63.972656 149.164062 56.847656 140.421875 56.847656 C 131.675781 56.847656 124.5625 63.972656 124.5625 72.722656 C 124.5625 81.472656 131.675781 88.59375 140.421875 88.59375 C 149.164062 88.59375 156.277344 81.472656 156.277344 72.722656 Z M 141.921875 40.996094 C 140.621094 40.328125 139.394531 39.695312 138.308594 39.210938 C 133.800781 37.203125 120.492188 44.695312 114.96875 52.351562 C 108.210938 61.71875 98.164062 66.972656 85.105469 67.984375 C 81.304688 68.273438 78.257812 69.3125 75.96875 70.464844 L 159.710938 154.300781 L 159.710938 47.007812 C 152.351562 46.371094 146.460938 43.335938 141.921875 40.996094 Z M 63.546875 58.027344 L 68.378906 62.867188 C 71.894531 60.621094 77.230469 58.167969 84.308594 57.625 C 94.320312 56.855469 101.601562 53.136719 106.558594 46.269531 C 112.589844 37.910156 130.75 24.480469 142.523438 29.722656 C 143.878906 30.324219 145.234375 31.019531 146.667969 31.761719 C 150.515625 33.742188 154.761719 35.921875 159.710938 36.554688 L 159.710938 18.148438 C 123.6875 19.382812 89.886719 33.398438 63.546875 58.027344 Z M 170.085938 7.675781 L 170.085938 179.375 L 48.808594 57.964844 L 52.476562 54.292969 C 82.503906 24.234375 122.433594 7.675781 164.898438 7.675781 Z M 299.144531 196.945312 C 305.824219 196.945312 305.839844 186.542969 299.144531 186.542969 C 292.453125 186.542969 292.4375 196.945312 299.144531 196.945312 Z M 108.613281 86.941406 C 115.300781 86.941406 115.3125 76.542969 108.613281 76.542969 C 101.929688 76.542969 101.917969 86.941406 108.613281 86.941406 Z M 299.144531 196.945312 C 305.824219 196.945312 305.839844 186.542969 299.144531 186.542969 C 292.453125 186.542969 292.4375 196.945312 299.144531 196.945312 Z M 298.277344 242.667969 C 304.957031 242.667969 304.96875 232.265625 298.277344 232.265625 C 291.582031 232.265625 291.570312 242.667969 298.277344 242.667969 Z M 218.160156 287.222656 C 224.839844 287.222656 224.855469 276.820312 218.160156 276.820312 C 211.480469 276.820312 211.46875 287.222656 218.160156 287.222656 Z M 156.296875 279.289062 C 162.976562 279.289062 162.992188 268.886719 156.296875 268.886719 C 149.609375 268.886719 149.597656 279.289062 156.296875 279.289062 Z M 140.402344 315.351562 C 147.085938 315.351562 147.101562 304.949219 140.402344 304.949219 C 133.71875 304.949219 133.707031 315.351562 140.402344 315.351562 Z M 134.679688 246.1875 C 127.980469 246.1875 127.992188 235.785156 134.679688 235.785156 C 141.378906 235.785156 141.367188 246.1875 134.679688 246.1875 " fill-opacity="1" fill-rule="nonzero"/></g></svg>